<svg xmlns="http://www.w3.org/2000/svg" viewBox="0 0 95.47 23"><title>floral-divider-white</title><path d="M20.76,1.74c1.13-.49,2.82.41,4.25,1.16,3.21,1.69,7,6.58,5.93,10.26A67.47,67.47,0,0,0,40,14.86a14.51,14.51,0,0,1-6.26-8.11C33.57,6,33,4.54,33.52,4.1c0.74-.61,2.87.87,3.73,1.49,2.56,1.85,6,6.39,6,9.61a90,90,0,0,0,9.44.37c-2.56-1.64-6.82-6.91-6.35-10.35,3.36,0.65,9.4,5.5,10,10.19,2.74,0.09,5.6-.4,8.38-0.52A20.08,20.08,0,0,1,54.81,6C60.16,6,65,8.21,69.09,14.15a38.22,38.22,0,0,0,10.37-2.53c-4.64-.84-9.8-2.18-13.86-6.75,6.25-1.47,11.68.81,16.58,5.5C87.38,7.86,92.85,3.73,97.73.76c0.07,0.84-.95,1.16-1.53,1.59a95.87,95.87,0,0,1-13.69,8.54C82.15,16,75.5,22.24,69,23.53c-0.34-1.95,1.1-3.73,2.49-5.6a14.45,14.45,0,0,1,4.59-4.39,63.67,63.67,0,0,1-6.56,1.3c-1.09,4.9-9.12,9.7-13.89,8.79,0.81-3.13,5.56-6.55,9.38-8.08-2.83.12-5.73,0.54-8.55,0.63C54.69,21.3,46.29,24.9,42,23.43c1-3.49,7.42-6.83,10.86-7.08-2.14-.14-4.43-0.12-7-0.27a13.54,13.54,0,0,0-2.32-.21,11.67,11.67,0,0,0-.8,1.6,9.31,9.31,0,0,1-2.84,2.19A11.77,11.77,0,0,1,30,20.2c0.89-2.8,5.7-4.49,8.21-4.78-2.11-.6-4.94-0.81-7.27-1.52-3.05,5.11-9.79,5.5-13.47,3.18,2.39-3.48,7.29-4.54,10.18-4a65.35,65.35,0,0,1-9.09-3.63C12.07,12.91,7.13,9.42,2.27,5.59a16.21,16.21,0,0,1,8.68-2.53c2.83,0.06,4.93,1.43,7.18,4.61a9.41,9.41,0,0,0,.77,1.21c0.58,0.59,2.44,1.24,4,1.83a35.82,35.82,0,0,0,4.41,1.41A24.52,24.52,0,0,1,20.76,1.74ZM17.19,8.87a13.87,13.87,0,0,0-13-3.08C8.56,6.73,12.61,9,17.19,8.87Zm11.94,5.44c-2.83.36-6,.39-8.9,2.19C23.09,16,26.26,16,29.13,14.31Zm13,2.11c-3.23.58-6.76,0.75-10.13,3.1C35.28,18.55,38.76,18.62,42.1,16.43ZM29.65,12.28c-1.21-3.44-4.23-7.56-6.84-8.83C25.08,6.43,27.22,10,29.65,12.28Zm24.07,5.3c-3,1.16-6.46,2.28-9.54,4.78A20.61,20.61,0,0,0,53.72,17.58ZM41.66,14.4A25.79,25.79,0,0,0,35,5.92C36.88,9.07,39.24,12.73,41.66,14.4ZM54.6,15c-2.2-3.19-4.41-6.35-6.94-8C49.94,9.74,52.15,12.9,54.6,15Zm12.79,1.26c-3.15,1.66-7.21,3.52-9.68,6.09C60.73,21,65.57,19.06,67.38,16.21ZM66.1,14c0.38,0.18.84,0.68,1.18,0.33C64.08,11,60.37,8.18,56.9,7.18A43.09,43.09,0,0,0,66.1,14Zm14-.76C76.77,15.89,73,18.44,71,21.39,74.7,18.81,78.33,16.23,80.14,13.25Zm0.42-2.57a31.57,31.57,0,0,0-12.26-5C72.34,7.36,76.64,9.62,80.56,10.68Z" transform="translate(-2.27 -0.76)" style="fill:#fff;fill-rule:evenodd"/></svg>